<svg width="40" height="40" viewBox="0 0 40 40" fill="none" xmlns="http://www.w3.org/2000/svg">
<circle opacity="0.1" cx="20" cy="20" r="20" fill="#3774B9"/>
<path d="M19.4855 13.2031V26H17.7805L11.3381 16.1299V26H9.6418V13.2031H11.3381L17.8068 23.0996V13.2031H19.4855ZM29.4617 22.7656C29.4617 22.4668 29.4148 22.2031 29.3211 21.9746C29.2332 21.7402 29.075 21.5293 28.8465 21.3418C28.6238 21.1543 28.3133 20.9756 27.9148 20.8057C27.5223 20.6357 27.0242 20.4629 26.4207 20.2871C25.7879 20.0996 25.2166 19.8916 24.7068 19.6631C24.1971 19.4287 23.7605 19.1621 23.3973 18.8633C23.034 18.5645 22.7557 18.2217 22.5623 17.835C22.3689 17.4482 22.2723 17.0059 22.2723 16.5078C22.2723 16.0098 22.3748 15.5498 22.5799 15.1279C22.785 14.7061 23.0779 14.3398 23.4588 14.0293C23.8455 13.7129 24.3055 13.4668 24.8387 13.291C25.3719 13.1152 25.9666 13.0273 26.6229 13.0273C27.5838 13.0273 28.3982 13.2119 29.0662 13.5811C29.74 13.9443 30.2527 14.4219 30.6043 15.0137C30.9559 15.5996 31.1316 16.2266 31.1316 16.8945H29.4441C29.4441 16.4141 29.3416 15.9893 29.1365 15.6201C28.9314 15.2451 28.6209 14.9521 28.2049 14.7412C27.7889 14.5244 27.2615 14.416 26.6229 14.416C26.0193 14.416 25.5213 14.5068 25.1287 14.6885C24.7361 14.8701 24.4432 15.1162 24.2498 15.4268C24.0623 15.7373 23.9686 16.0918 23.9686 16.4902C23.9686 16.7598 24.0242 17.0059 24.1355 17.2285C24.2527 17.4453 24.4314 17.6475 24.6717 17.835C24.9178 18.0225 25.2283 18.1953 25.6033 18.3535C25.9842 18.5117 26.4383 18.6641 26.9656 18.8105C27.6922 19.0156 28.3191 19.2441 28.8465 19.4961C29.3738 19.748 29.8074 20.0322 30.1473 20.3486C30.493 20.6592 30.7479 21.0137 30.9119 21.4121C31.0818 21.8047 31.1668 22.25 31.1668 22.748C31.1668 23.2695 31.0613 23.7412 30.8504 24.1631C30.6395 24.585 30.3377 24.9453 29.9451 25.2441C29.5525 25.543 29.0809 25.7744 28.5301 25.9385C27.9852 26.0967 27.3758 26.1758 26.702 26.1758C26.1102 26.1758 25.5271 26.0938 24.9529 25.9297C24.3846 25.7656 23.866 25.5195 23.3973 25.1914C22.9344 24.8633 22.5623 24.459 22.2811 23.9785C22.0057 23.4922 21.868 22.9297 21.868 22.291H23.5555C23.5555 22.7305 23.6404 23.1084 23.8104 23.4248C23.9803 23.7354 24.2117 23.9932 24.5047 24.1982C24.8035 24.4033 25.1404 24.5557 25.5154 24.6553C25.8963 24.749 26.2918 24.7959 26.702 24.7959C27.2937 24.7959 27.7947 24.7139 28.2049 24.5498C28.615 24.3857 28.9256 24.1514 29.1365 23.8467C29.3533 23.542 29.4617 23.1816 29.4617 22.7656Z" fill="#20446C"/>
</svg>
